PathFileType	4	(X/Y/Z)	C:\Users\WrightLab\Desktop\Jo\P4V121.trc
DataRate	CameraRate	NumFrames	NumMarkers	Units	OrigDataRate	OrigDataStartFrame	OrigNumFrames
100.00	100.00	       15	19	mm	100.00	207	       551
Frame#	Time	Headset_Front			Headset_Back			Headset_Left			Headset_Right			Left_Shoulder			Right_Shoulder			Sternum			C7			Left Elbow			Right Elbow			Left Wrist			Right Wrist			Left ASIS			Right ASIS			S2			Left Knee			Right Knee			Left Ankle			Right Ankle			
		X1	Y1	Z1	X2	Y2	Z2	X3	Y3	Z3	X4	Y4	Z4	X5	Y5	Z5	X6	Y6	Z6	X7	Y7	Z7	X8	Y8	Z8	X9	Y9	Z9	X10	Y10	Z10	X11	Y11	Z11	X12	Y12	Z12	X13	Y13	Z13	X14	Y14	Z14	X15	Y15	Z15	X16	Y16	Z16	X17	Y17	Z17	X18	Y18	Z18	X19	Y19	Z19	

207	2.060				-403.79303	1627.98328	-39.63673							-389.77322	1491.44556	-300.53979	-690.03333	1505.77844	-260.79694	-513.65253	1433.16772	-173.30693	-549.89471	1527.43030	-338.06766	-263.62933	1136.98254	-278.56790	-856.68689	1170.43750	-268.00433	-333.19644	924.58783	-61.43003	-854.22412	898.54877	-121.90643	-391.29471	979.03253	-237.55116	-706.54321	1019.28845	-132.98340				-492.00836	504.89493	-320.33066	-711.21948	563.87439	-25.56689	-625.47632	46.84883	-503.01285	-678.61237	69.13589	112.68616	
208	2.070	-586.14893	1025.38000	-361.03992	-401.90317	1626.25110	-28.57117							-388.15958	1488.92188	-289.02216	-688.23199	1504.28479	-248.27344	-511.54382	1431.48279	-162.71338	-548.22949	1525.11353	-326.31985	-262.63000	1134.42651	-267.87708	-855.31274	1168.42871	-255.14960	-331.72134	922.62000	-51.58252	-854.10846	896.81982	-111.06927	-389.52161	977.08490	-227.94833	-704.30713	1017.68274	-121.25687				-490.54404	504.22433	-314.80145	-706.80621	560.91907	-14.53144	-625.57849	47.82384	-502.93420	-666.58374	69.63521	134.37456	
209	2.080	-586.44092	1022.97406	-348.66846	-400.08237	1624.42285	-17.31824							-386.47855	1486.45154	-279.94766	-685.77490	1501.23682	-236.56389	-508.94980	1428.83411	-151.76396	-546.44458	1523.13000	-315.24557	-261.28107	1131.96045	-258.06461	-853.90002	1166.91870	-244.17111	-329.94806	920.74866	-40.17348	-852.95270	893.65753	-101.53297	-388.36401	975.67480	-217.81451	-702.15308	1015.03510	-110.78381				-489.95682	503.59509	-309.15826	-702.16949	558.38953	-0.71756	-626.14490	49.71110	-501.42297	-655.63910	69.63109	153.13667	
210	2.090	-586.41217	1021.21967	-336.59027	-398.13007	1622.73975	-5.73254							-384.40466	1484.26147	-270.05344	-683.69116	1499.13074	-223.83434	-507.71753	1427.94995	-140.32112	-544.90881	1521.30420	-304.75610	-259.79218	1129.69873	-248.38315	-852.35376	1165.19739	-231.24193	-328.47720	918.55493	-30.24619	-852.09863	892.04565	-90.23840	-386.89413	974.07196	-208.60747	-699.57855	1013.08777	-96.34735				-488.50165	503.47244	-303.22476	-697.21051	558.20209	12.43520	-625.46710	51.71278	-501.27408	-645.35663	68.16206	168.61707	
211	2.100	-586.38995	1019.38910	-324.61539	-396.22540	1620.96057	5.76366							-383.18015	1482.17456	-260.30917	-682.40485	1498.06958	-213.68404	-505.49194	1425.66309	-129.80283	-543.36200	1519.27271	-293.01749	-258.74091	1127.30200	-238.03540	-850.80316	1163.18555	-219.05637	-326.77817	915.84088	-19.07682	-850.06250	890.02057	-78.27314	-385.33502	972.77734	-198.81667	-697.30133	1011.07782	-85.34113				-486.89252	503.03424	-297.74490	-690.84454	557.52051	26.95707	-625.59222	53.68690	-499.03644	-637.85303	67.74855	182.30330	
212	2.110	-585.63269	1018.40619	-314.38724	-394.22055	1619.13855	17.63561							-381.29410	1480.64880	-249.52290	-680.62695	1496.66504	-201.00592	-503.33463	1424.06396	-117.49660	-541.54688	1517.47620	-281.53604	-257.26859	1125.34119	-227.55792	-848.95038	1161.68188	-206.52473	-324.93524	913.03864	-10.29931	-849.54510	887.68811	-65.17176	-383.70764	971.69574	-188.54222	-694.93256	1010.24445	-72.56572				-484.40656	502.48175	-290.42981	-685.73035	558.30634	42.87257	-625.36438	55.73189	-499.27371	-631.01691	66.38487	193.23317	
213	2.120				-392.17261	1617.78247	29.30199							-379.38745	1478.86523	-240.02074	-677.75494	1494.68774	-188.87956	-500.92200	1422.95911	-106.83667	-540.18182	1516.24231	-271.30209	-256.00128	1123.04736	-217.14148	-846.94965	1160.27783	-193.92642	-322.09396	910.20111	0.15446	-848.55627	885.89679	-54.17907	-381.89304	970.21362	-178.52121	-692.16876	1008.78204	-60.49842				-483.04941	502.11194	-283.78152	-680.44250	559.60754	59.60969	-624.33008	59.11021	-498.06961	-625.17682	64.21857	201.87657	
214	2.130				-390.06140	1616.32153	40.53712							-377.48746	1476.90015	-228.80325	-676.87750	1494.39600	-178.61316	-499.45187	1421.41016	-95.16974	-537.98920	1514.70520	-259.16940	-254.13326	1121.39246	-207.51344	-844.84070	1159.23572	-181.50801	-320.80447	907.02118	9.37585	-846.75739	883.98975	-42.86723	-380.49933	968.81763	-166.89322	-689.14685	1008.39282	-45.97350	-583.98083	1014.45660	-288.75015	-481.22485	501.70694	-276.37759	-674.37988	559.29047	75.13280	-624.15692	61.15565	-496.66379	-620.87585	62.28943	209.41245	
215	2.140				-387.93369	1614.99084	53.50539							-375.27188	1475.18115	-216.26730	-674.45831	1492.69861	-165.05556	-496.85043	1419.81921	-84.64251	-536.14740	1513.26306	-247.73404	-252.90114	1119.92163	-196.56207	-842.65582	1157.64612	-168.26057	-317.70129	903.65247	18.84502	-845.27869	881.65710	-30.25149	-377.95490	967.17694	-156.14207	-686.59894	1007.96533	-35.39920	-582.57532	1012.90430	-275.95905	-479.19034	502.16574	-268.35947	-668.37091	560.32379	91.86160	-623.53607	65.40052	-495.68158	-617.37207	60.37099	216.15758	
216	2.150				-385.86502	1613.59485	65.12511							-373.55679	1474.28857	-205.33167	-672.26172	1490.70654	-153.47067	-495.10623	1419.09534	-73.30598	-534.79431	1512.11169	-237.37370	-251.92117	1118.12915	-185.58823	-840.39398	1156.64771	-156.04968	-315.29965	900.73297	28.18957	-843.67584	879.69897	-18.97341	-375.58429	966.22900	-144.81421	-682.70233	1008.25732	-19.56119	-581.12128	1011.94623	-263.52191	-476.71564	501.83151	-259.59549	-662.88013	560.96552	108.16493	-622.97595	68.89203	-493.78229	-615.89026	59.10415	221.32990	
217	2.160				-383.63425	1612.68835	76.52765							-372.98016	1473.29187	-197.39708	-670.05591	1490.05249	-142.00331	-492.34390	1418.22522	-60.79790	-532.82635	1511.08545	-225.57510	-250.17755	1116.58813	-175.19409	-837.93640	1155.61694	-142.57031	-311.77600	897.64270	36.91097	-841.92645	877.88184	-8.11777	-372.88586	965.14642	-133.44809	-678.85156	1008.76508	-5.50072	-579.58136	1011.29938	-249.71144	-474.11047	502.39359	-250.63069	-656.97711	560.93695	123.21790	-621.65387	74.01375	-492.41379	-613.64502	57.40117	226.13095	
218	2.170				-381.41885	1611.73230	88.27160							-370.02866	1471.88013	-183.75125	-668.54248	1489.76086	-129.83624	-490.49933	1417.46387	-49.81532	-531.11084	1509.73779	-214.30334	-248.89490	1115.96814	-164.80688	-835.55450	1154.15051	-129.68781	-308.82370	894.19000	45.87801	-840.16431	876.71149	5.63317	-370.49585	963.74817	-120.77940	-674.73816	1008.49335	6.98735	-578.45923	1010.07599	-235.95410	-471.42914	503.11407	-241.55334	-651.05182	559.50830	137.90628	-621.12695	77.31010	-488.59610	-612.42554	55.71021	231.38698	
219	2.180				-379.33487	1610.82458	99.98494							-369.44260	1472.06567	-173.30879	-666.14539	1487.76184	-117.75147	-487.64453	1417.46533	-39.07902	-529.80957	1508.71497	-203.20566	-247.29436	1114.92554	-154.37045	-833.45544	1152.99011	-116.58158	-305.93134	891.05463	54.78215	-838.37097	875.14410	17.22403	-367.31567	963.54187	-110.68829	-670.23743	1008.97229	23.48258	-577.34448	1009.34662	-220.95323	-468.00928	503.29846	-231.27051	-645.38361	558.40839	151.65776	-619.91046	83.17268	-487.07620	-610.31909	54.73542	235.86447	
220	2.190	-428.78769	1644.09985	62.19724	-377.16724	1610.69336	111.41779							-367.29202	1470.36731	-163.40009	-664.72729	1488.55652	-106.88638	-485.95865	1417.45361	-26.18846	-528.16974	1507.91577	-192.15160	-246.08429	1114.08484	-143.11052	-831.21313	1152.39343	-104.40115	-302.23215	887.57788	62.96432	-836.06128	874.12140	28.99175	-364.23953	962.27380	-99.11876	-665.12457	1010.31506	38.66906	-575.71985	1009.23590	-206.55956	-464.83496	503.91821	-219.27705	-640.30115	557.78320	164.53815	-618.42725	86.93020	-482.67978	-608.85107	55.36092	238.91754	
221	2.200	-424.95059	1643.69995	72.41128	-374.79620	1611.26428	123.34846							-365.31580	1471.22937	-153.59262	-662.80939	1488.12573	-94.89956	-482.27942	1419.04224	-15.00541	-526.92480	1507.58203	-181.60397	-244.16536	1113.67493	-133.11490	-828.96796	1151.91028	-91.53692	-298.49634	884.09766	70.24188	-833.26440	872.81390	42.26352	-360.92313	963.02393	-85.76286	-659.78412	1011.94427	52.37458	-573.76672	1010.87170	-193.84200	-460.79599	503.12549	-206.63516	-635.08875	558.19012	176.19241	-616.81775	92.54078	-478.96356	-609.45099	54.98903	241.00974	
